<?xml version="1.0" encoding="UTF-8" standalone="no"?>
<!DOCTYPE svg PUBLIC "-//W3C//DTD SVG 20010904//EN" "http://www.w3.org/TR/2001/REC-SVG-20010904/DTD/svg10.dtd">
<svg xmlns="http://www.w3.org/2000/svg" width="3.09667in" height="2.89667in" viewBox="0 0 929 869">
  <path id="Selección" fill="white" stroke="white" stroke-width="1" d="M 253.83,66.00            C 254.17,68.29 254.39,69.64 253.83,71.91              251.34,79.03 234.00,93.16 228.34,100.28              215.04,117.05 202.26,145.30 202.00,167.00              201.84,181.37 203.24,178.36 208.77,190.00              208.77,190.00 212.35,200.00 212.35,200.00              212.35,200.00 219.11,212.00 219.11,212.00              219.11,212.00 225.40,229.00 225.40,229.00              225.40,229.00 234.60,243.00 234.60,243.00              240.59,254.43 246.14,277.04 246.00,290.00              245.89,299.82 242.81,316.99 238.96,326.00              238.96,326.00 224.64,353.00 224.64,353.00              222.04,358.80 222.47,364.52 220.44,370.00              218.32,375.72 214.42,379.62 210.63,384.17              205.38,390.45 196.46,401.43 189.83,405.93              185.89,408.60 180.98,409.88 178.19,404.81              176.42,401.61 178.16,397.11 179.46,394.00              183.10,385.33 189.83,376.39 195.58,369.00              210.29,350.09 229.70,323.98 230.00,299.00              230.00,299.00 230.00,286.00 230.00,286.00              229.80,269.64 220.21,253.40 213.36,239.00              213.36,239.00 207.92,225.00 207.92,225.00              205.69,221.15 202.46,219.09 200.70,215.00              200.70,215.00 196.45,199.00 196.45,199.00              196.45,199.00 188.78,182.00 188.78,182.00              187.72,178.16 187.96,172.11 188.00,168.00              188.00,168.00 189.72,152.00 189.72,152.00              192.82,128.20 201.51,105.29 219.29,88.54              227.37,80.92 230.98,78.82 240.00,72.92              245.28,69.47 247.49,66.89 253.83,66.00 Z            M 454.00,254.00            C 454.55,241.97 463.06,197.72 466.38,185.00              467.36,181.23 470.38,172.15 472.36,169.06              473.48,167.31 475.34,165.03 477.70,166.17              480.52,167.52 480.05,173.37 479.99,176.00              479.99,176.00 479.09,185.00 479.09,185.00              478.17,198.46 477.94,211.92 473.96,225.00              469.17,240.77 460.20,256.14 460.00,273.00              459.93,279.60 459.80,283.62 462.09,290.00              462.09,290.00 474.40,317.00 474.40,317.00              474.40,317.00 477.59,336.00 477.59,336.00              477.59,336.00 485.53,361.00 485.53,361.00              486.22,364.68 486.58,373.37 480.97,373.37              475.35,373.37 472.46,362.32 471.37,358.00              471.37,358.00 464.17,322.00 464.17,322.00              464.17,322.00 454.00,303.00 454.00,303.00              453.58,308.16 450.52,326.34 448.92,331.00              448.92,331.00 439.34,352.00 439.34,352.00              432.33,368.37 436.02,391.50 431.12,402.98              428.92,408.14 425.67,408.12 423.55,402.98              420.97,396.75 420.01,390.68 420.00,384.00              419.99,378.38 420.21,370.40 421.61,365.00              421.61,365.00 429.66,345.00 429.66,345.00              435.90,327.19 445.93,297.41 446.79,279.00              447.05,273.44 444.37,269.90 442.46,265.00              442.46,265.00 437.32,250.00 437.32,250.00              437.32,250.00 432.19,237.00 432.19,237.00              429.28,227.91 427.61,222.73 428.04,213.00              428.04,213.00 430.00,195.00 430.00,195.00              430.01,191.43 429.56,176.16 436.86,179.17              441.47,181.06 441.57,195.33 441.91,200.00              443.09,216.17 444.46,222.36 448.37,238.00              449.72,243.37 450.33,249.71 454.00,254.00 Z            M 351.98,168.57            C 360.05,169.70 354.38,176.67 350.96,179.81              344.52,185.74 338.70,184.61 332.19,191.18              327.91,195.49 325.67,202.28 324.00,208.00              321.31,217.23 317.37,234.80 317.38,244.12              317.12,251.62 319.65,257.72 321.00,258.25              322.28,259.59 333.25,257.62 333.25,265.25              333.25,272.25 324.12,270.86 320.88,272.88              319.75,274.00 319.37,277.14 319.62,280.38              320.65,293.59 326.80,318.75 330.58,332.00              332.54,338.87 335.22,349.42 339.61,354.91              343.63,359.92 350.62,363.09 357.00,361.37              360.25,360.49 369.50,355.24 371.92,359.35              372.60,360.50 372.45,361.79 371.92,362.96              369.58,368.16 361.05,369.35 356.00,369.83              352.42,370.17 349.49,369.94 346.00,369.10              321.88,363.33 320.41,341.16 315.37,321.00              306.89,287.06 300.79,245.17 310.43,211.00              312.82,202.52 317.12,191.73 321.31,184.00              323.53,179.90 325.95,175.52 330.02,173.01              334.54,170.21 346.43,169.05 351.98,168.57 Z            M 584.00,174.67            C 590.56,174.00 591.25,176.92 597.00,177.79              604.13,178.86 608.83,175.17 615.94,179.41              619.63,181.61 621.31,186.02 616.77,188.28              613.85,189.73 606.38,189.99 603.00,190.00              596.34,190.01 582.07,188.56 577.73,194.22              575.40,197.28 574.89,204.21 575.04,208.00              575.27,213.90 577.52,226.05 578.89,232.00              578.89,232.00 581.85,244.00 581.85,244.00              581.85,244.00 581.85,253.00 581.85,253.00              581.85,253.00 583.00,272.00 583.00,272.00              583.00,272.00 586.72,304.00 586.72,304.00              588.80,319.98 590.03,335.89 590.00,352.00              590.00,352.00 588.66,369.00 588.66,369.00              588.21,371.11 587.23,373.66 584.88,374.26              581.95,375.00 580.16,372.32 579.26,369.98              577.70,365.92 577.01,356.50 577.00,352.00              577.00,352.00 575.83,306.00 575.83,306.00              575.83,306.00 570.00,261.00 570.00,261.00              569.95,256.40 570.51,250.19 568.78,246.00              566.04,239.38 558.40,234.37 559.09,223.00              559.58,215.01 563.66,208.50 565.24,202.00              566.01,198.83 566.19,195.23 562.77,193.56              559.85,192.13 553.40,192.96 550.00,193.00              546.06,193.04 536.32,193.47 533.11,191.99              528.78,190.01 528.71,186.26 533.11,184.27              536.39,182.79 553.12,182.31 558.00,181.83              568.89,180.77 574.17,177.96 584.00,174.67 Z            M 619.00,184.00            C 619.00,184.00 618.00,184.00 618.00,184.00              618.00,184.00 619.00,185.00 619.00,185.00              619.00,185.00 619.00,184.00 619.00,184.00 Z            M 719.00,184.42            C 725.45,183.64 731.88,184.21 736.59,189.33              739.37,192.35 740.89,198.04 741.87,202.00              741.87,202.00 747.00,230.00 747.00,230.00              747.00,230.00 751.00,268.00 751.00,268.00              751.00,268.00 752.00,291.00 752.00,291.00              752.00,291.00 751.09,301.00 751.09,301.00              749.85,319.05 749.53,324.98 741.77,342.00              734.47,358.01 729.03,371.53 709.00,373.53              696.45,374.79 690.43,367.09 685.26,357.00              677.60,342.06 674.03,318.76 674.00,302.00              674.00,302.00 674.00,280.00 674.00,280.00              674.00,280.00 673.00,266.00 673.00,266.00              673.00,266.00 666.01,213.00 666.01,213.00              666.28,202.11 674.80,193.48 684.00,188.55              694.10,183.14 707.94,185.99 719.00,184.42 Z            M 206.00,188.00            C 206.00,188.00 205.00,188.00 205.00,188.00              205.00,188.00 206.00,189.00 206.00,189.00              206.00,189.00 206.00,188.00 206.00,188.00 Z            M 697.00,198.00            C 697.00,198.00 697.00,212.00 697.00,212.00              696.97,229.83 690.89,236.50 687.81,252.00              685.54,263.43 685.86,281.98 686.00,294.00              686.16,307.31 689.53,334.91 694.45,347.00              697.92,355.51 700.57,359.00 710.00,359.00              712.35,359.00 714.77,359.06 716.96,358.07              720.29,356.56 722.79,352.90 724.86,350.00              730.34,342.31 734.11,333.03 736.71,324.00              739.93,312.81 742.98,301.74 743.00,290.00              743.03,273.36 743.62,256.50 741.27,240.00              739.84,229.96 737.23,214.86 730.66,207.02              721.89,196.54 713.33,201.98 697.00,198.00 Z            M 139.96,474.01            C 148.84,475.55 141.83,485.72 139.30,490.00              128.90,507.61 118.25,524.62 118.22,546.00              117.97,548.90 117.80,557.67 118.22,560.00              119.28,563.17 121.36,565.21 122.94,568.00              122.94,568.00 131.69,586.00 131.69,586.00              131.69,586.00 139.04,605.00 139.04,605.00              141.97,610.45 144.41,611.13 147.69,619.00              163.23,656.30 153.99,709.35 119.00,732.58              119.00,732.58 99.00,746.19 99.00,746.19              96.50,747.72 92.04,750.63 89.11,750.66              84.26,750.69 85.45,745.81 87.15,743.04              90.19,738.06 99.17,731.24 104.00,727.74              113.32,721.00 120.68,714.45 127.44,705.00              140.42,686.88 145.70,663.70 139.57,642.00              136.54,631.24 131.45,623.79 127.45,614.00              127.45,614.00 119.76,593.00 119.76,593.00              119.76,593.00 104.93,561.00 104.93,561.00              103.71,556.49 103.95,550.72 104.00,546.00              104.20,529.64 114.32,502.38 123.61,489.01              127.58,483.31 133.27,476.27 139.96,474.01 Z            M 269.00,685.00            C 260.40,687.12 247.97,688.57 240.04,683.78              228.94,677.07 223.88,653.16 221.75,641.00              221.75,641.00 216.80,617.00 216.80,617.00              214.61,605.45 210.80,577.15 211.02,566.00              211.22,555.32 212.98,544.40 215.35,534.00              217.84,523.04 222.28,511.69 228.01,502.00              230.02,498.61 233.36,493.11 237.00,491.43              239.98,490.05 252.53,492.15 256.00,493.00              254.00,499.26 245.94,503.09 241.02,507.43              235.96,511.88 232.69,517.80 230.21,524.00              225.15,536.60 223.98,550.58 224.00,564.00              224.00,566.68 223.98,572.03 225.00,574.50              226.23,578.05 240.25,575.75 239.75,583.75              239.50,593.38 226.88,587.62 225.62,593.38              224.97,597.10 227.16,613.77 228.12,618.00              231.33,632.15 235.84,647.51 241.20,661.00              243.92,667.83 246.12,671.37 253.00,674.67              259.17,677.64 266.75,677.78 269.00,685.00 Z            M 482.00,496.91            C 482.00,496.91 494.00,500.32 494.00,500.32              499.69,500.99 509.28,497.00 514.26,503.39              517.11,507.05 514.87,510.12 510.98,511.28              507.13,512.43 494.78,511.95 490.00,512.00              486.20,512.05 479.18,512.61 476.06,514.74              467.89,520.30 471.62,538.78 473.42,547.00              473.42,547.00 477.95,567.00 477.95,567.00              477.95,567.00 477.95,577.00 477.95,577.00              477.95,577.00 479.00,587.00 479.00,587.00              479.00,587.00 484.83,644.00 484.83,644.00              484.83,644.00 486.00,676.00 486.00,676.00              485.99,679.21 485.24,690.30 484.35,692.96              483.71,694.87 482.31,697.24 479.94,696.97              477.49,696.69 476.03,694.05 475.26,692.00              473.82,688.15 473.01,677.36 473.00,673.00              473.00,673.00 473.00,646.00 473.00,646.00              473.00,646.00 470.84,619.00 470.84,619.00              470.84,619.00 466.00,582.00 466.00,582.00              465.98,577.67 466.47,571.94 464.72,568.00              462.48,562.91 457.84,559.85 455.76,552.00              453.58,543.75 457.12,536.58 459.65,529.00              460.73,525.75 462.81,520.30 460.39,517.31              458.14,514.53 453.25,514.94 450.00,514.95              442.98,515.18 438.48,517.19 431.00,514.95              428.79,514.21 424.72,512.38 426.17,509.35              427.89,505.73 435.51,505.05 439.00,505.00              439.00,505.00 443.00,505.00 443.00,505.00              443.00,505.00 462.00,503.08 462.00,503.08              462.00,503.08 482.00,496.91 482.00,496.91 Z            M 572.56,497.17            C 578.56,496.52 580.26,504.37 581.57,509.00              584.68,520.00 584.35,526.17 585.09,537.00              585.09,537.00 586.00,549.00 586.00,549.00              586.00,549.00 585.00,597.00 585.00,597.00              585.00,597.00 584.00,617.00 584.00,617.00              584.00,617.00 585.00,632.00 585.00,632.00              585.00,632.00 585.00,656.00 585.00,656.00              585.00,656.00 586.00,680.00 586.00,680.00              585.99,683.67 586.14,688.65 583.91,691.74              581.70,694.84 578.30,694.71 576.08,691.74              573.29,687.96 571.82,672.83 572.09,668.00              572.09,668.00 573.00,658.00 573.00,658.00              573.00,658.00 573.00,634.00 573.00,634.00              572.94,622.19 567.17,619.31 567.18,611.00              567.19,603.86 572.60,599.74 572.95,592.00              572.95,592.00 572.00,577.00 572.00,577.00              572.00,577.00 572.00,545.00 572.00,545.00              572.00,545.00 571.00,528.00 571.00,528.00              571.00,528.00 571.00,511.00 571.00,511.00              570.94,506.12 569.05,501.07 572.56,497.17 Z            M 370.00,641.00            C 370.00,641.00 369.00,622.00 369.00,622.00              369.00,622.00 371.00,595.00 371.00,595.00              371.00,595.00 370.00,571.00 370.00,571.00              370.00,571.00 370.00,536.00 370.00,536.00              370.00,529.57 369.59,520.00 371.64,514.00              373.13,509.62 375.79,508.02 378.92,504.92              382.01,501.84 385.85,496.48 389.85,502.23              392.91,506.82 391.57,512.16 389.85,517.00              387.20,524.97 381.63,534.81 382.09,543.00              382.09,543.00 383.79,559.00 383.79,559.00              383.79,559.00 381.18,577.00 381.18,577.00              381.18,577.00 382.00,584.00 382.00,584.00              382.00,584.00 382.00,593.00 382.00,593.00              382.00,593.00 383.00,608.00 383.00,608.00              383.00,608.00 382.00,623.00 382.00,623.00              382.00,623.00 382.00,649.00 382.00,649.00              382.00,649.00 382.91,659.00 382.91,659.00              382.91,659.00 383.47,677.00 383.47,677.00              383.57,679.87 382.19,685.23 378.17,683.60              376.04,682.74 374.87,679.95 374.02,678.00              374.02,678.00 367.22,663.00 367.22,663.00              367.22,663.00 354.27,641.00 354.27,641.00              348.46,629.56 344.17,617.76 337.00,607.00              337.00,629.99 337.95,653.13 340.17,676.00              341.06,685.23 345.50,708.64 344.00,716.00              338.79,713.42 337.07,711.89 333.80,707.01              325.95,695.30 329.09,689.60 327.42,677.00              327.42,677.00 326.91,665.00 326.91,665.00              326.91,665.00 326.00,653.00 326.00,653.00              326.00,653.00 326.00,610.00 326.00,610.00              326.00,610.00 325.00,595.00 325.00,595.00              325.00,595.00 324.00,576.00 324.00,576.00              324.00,576.00 324.00,561.00 324.00,561.00              324.00,561.00 326.83,530.00 326.83,530.00              327.23,525.98 327.12,519.62 330.51,516.74              337.87,510.47 340.15,523.39 339.82,528.00              338.69,543.93 334.37,557.56 337.33,574.00              338.14,578.53 341.16,583.60 342.99,588.00              342.99,588.00 354.17,614.00 354.17,614.00              357.14,620.30 364.68,637.76 370.00,641.00 Z            M 648.00,500.00            C 650.75,499.25 651.00,501.62 651.00,501.62              662.88,501.88 664.36,500.96 670.96,506.39              680.69,514.40 680.93,530.79 684.52,542.00              684.52,542.00 690.72,562.00 690.72,562.00              693.84,580.56 694.35,598.64 689.62,617.00              686.00,631.08 677.58,648.09 670.78,661.00              670.78,661.00 666.12,670.00 666.12,670.00              666.12,670.00 660.50,677.88 660.50,677.88              660.52,677.75 662.38,685.75 658.25,688.50              653.62,688.50 651.75,680.12 651.75,680.12              651.88,680.12 646.86,680.73 646.12,678.62              645.38,676.50 645.62,673.62 647.38,669.00              647.38,669.00 647.38,663.00 647.38,663.00              647.38,663.00 648.00,652.00 648.00,652.00              648.00,652.00 648.00,613.00 648.00,613.00              648.00,613.00 648.68,603.00 648.68,603.00              648.68,603.00 648.00,590.00 648.00,590.00              648.00,590.00 646.00,556.00 646.00,556.00              646.00,556.00 645.00,539.00 645.00,539.00              644.99,535.66 644.88,506.88 644.88,507.25              644.88,507.00 643.75,506.75 643.50,505.25              644.25,503.62 646.38,503.00 646.25,502.88              646.25,502.88 646.62,499.88 648.00,500.00 Z            M 811.00,506.51            C 817.28,506.41 821.60,507.81 825.57,513.02              827.99,516.18 829.42,522.07 830.35,526.00              830.35,526.00 835.27,553.00 835.27,553.00              835.27,553.00 839.04,595.00 839.04,595.00              839.04,595.00 840.00,608.00 840.00,608.00              840.03,627.45 838.40,646.09 830.23,664.00              823.17,679.47 816.57,694.57 797.00,695.91              783.12,696.86 778.24,689.15 772.76,678.00              765.79,663.82 764.00,649.52 762.91,634.00              762.91,634.00 762.00,622.00 762.00,622.00              762.00,622.00 762.00,598.00 762.00,598.00              762.00,598.00 760.90,587.00 760.90,587.00              760.90,587.00 760.90,576.00 760.90,576.00              757.94,552.85 744.68,530.90 766.00,515.16              768.82,513.08 772.76,510.67 776.00,509.35              783.41,506.34 802.10,507.47 811.00,506.51 Z            M 475.00,512.00            C 475.00,512.00 474.00,512.00 474.00,512.00              474.00,512.00 475.00,513.00 475.00,513.00              475.00,513.00 475.00,512.00 475.00,512.00 Z            M 655.00,515.00            C 655.00,515.00 654.00,515.00 654.00,515.00              654.00,515.00 655.00,516.00 655.00,516.00              655.00,516.00 655.00,515.00 655.00,515.00 Z            M 656.00,516.00            C 654.29,520.32 655.93,529.13 656.58,534.00              656.58,534.00 658.00,558.00 658.00,558.00              658.00,558.00 659.00,573.00 659.00,573.00              659.00,573.00 660.00,594.00 660.00,594.00              660.00,594.00 660.00,613.00 660.00,613.00              660.00,613.00 661.00,630.00 661.00,630.00              661.01,634.72 661.12,645.75 661.12,645.38              664.43,640.10 674.87,625.10 676.53,620.00              679.93,609.58 679.02,594.15 679.00,583.00              678.98,572.03 676.19,555.93 674.00,545.00              672.96,539.79 671.02,530.54 668.01,526.29              665.52,522.77 659.59,518.55 656.00,516.00 Z            M 783.88,521.00            C 785.45,529.12 785.63,539.96 783.88,548.00              783.88,548.00 776.42,572.00 776.42,572.00              773.87,583.40 773.86,601.09 774.00,613.00              774.00,613.00 774.91,623.00 774.91,623.00              774.91,623.00 776.28,642.00 776.28,642.00              777.50,651.48 780.42,668.35 785.99,675.96              790.02,681.46 799.98,684.36 805.96,680.40              812.20,676.27 819.57,661.12 822.40,654.00              830.78,632.87 831.00,619.01 831.00,597.00              831.00,582.16 831.24,578.04 829.28,563.00              827.84,551.93 825.29,535.23 816.82,527.33              811.32,522.20 808.51,523.45 802.00,522.83              802.00,522.83 783.88,521.00 783.88,521.00 Z            M 228.00,525.00            C 228.00,525.00 227.00,525.00 227.00,525.00              227.00,525.00 228.00,526.00 228.00,526.00              228.00,526.00 228.00,525.00 228.00,525.00 Z"/>
</svg>
