<?xml version="1.0" encoding="utf-8"?>
<!-- Generator: Adobe Illustrator 27.7.0, SVG Export Plug-In . SVG Version: 6.00 Build 0)  -->
<svg xmlns="http://www.w3.org/2000/svg" xmlns:xlink="http://www.w3.org/1999/xlink" version="1.1" x="0px" y="0px" viewBox="0 0 2100 1500" style="enable-background:new 0 0 2100 1500;" xml:space="preserve">
<style type="text/css">
	.st0{enable-background:new    ;}
	.st1{fill-rule:evenodd;clip-rule:evenodd;fill:#F200A2;}
	.st2{fill-rule:evenodd;clip-rule:evenodd;fill:#FFFFFF;}
</style>
<g id="Combined_00000152952318758279599680000004906331049144079038_" class="st0">
	<g id="Combined">
		<g>
			<path class="st1" d="M1458,666c0,0-4.28-3.76,1.21-8.26C1474.62,645.1,1512,570.9,1512,468c0-114.69-51.13-210.38-137.37-277.13     C1303.32,135.67,1209.27,99,1089,99c-249.05,0-442,158.61-442,361c0,113.16,60.29,156.05,151.89,228.39     C841.71,722.48,844,738.33,844,745c0,15.13,1,93.96,1,106s-6.86,12.51-14,9s-69.86-56-184-56s-276,89-276,281     c0,93.53,42.61,178.87,109.26,245.89C535.1,1386.03,604.61,1432,694,1432c160.38,0,205.88-114.52,214-138     c3.1-8.32,10.27-8.84,17-5c21.47,21.5,133.47,131,318,131c120.03,0,237.76-65.28,305.81-177.04     c39.44-64.78,60.19-147.84,60.19-235.96C1609,769.23,1458,666,1458,666z M1201,1288c-71.01,0-152.25-22.18-239.62-88.45     C854.33,1118.34,755.84,990,656,990c-68.14,0-89,53.91-89,86c0,32.09,35.63,85,67,85c16.85,0,17-7.63,17-14s-3-7.84-3-31     s28.84-60,81-60c56.88,0,87,48.93,87,100s-40.96,143-177,143s-204-120.93-204-226s92.19-214,205-214     c163.01,0,251.66,127.81,257,125s2-445.24,2-481c0-35.76-24.07-71.99-23-78c1.07-6.01,159.18-68.46,168-59c8.82,9.46,2,239,2,239     s47.67,14.63,105.23,6.15C1220.57,600.93,1302,559.88,1302,455c0.58-184.32-193.83-179-221-179s-156.83,9.55-208,78     c-51.17,68.45-46.1,84.88-41,93c5.1,8.12,50,17.9,50,82s-72.83,71-77,71c-4.17,0-104-0.61-104-155s173.18-296,376-296     s360,103.2,360,305c0,81.87-24.63,122.49-44.39,152.13C1363.67,649.54,1338,657.21,1338,664c0,11.43,175,65.56,175,283     S1359.01,1288,1201,1288z M1150,736c-52.4,0-91.05,5.87-99,14c-0.61,0.62-2.15,2.94-2.64,6.72     c-2.24,46.49-2.36,304.32-2.36,341.28c27.38,27.13,89.91,52,147,52c22.39,0,173-23.74,173-198S1202.4,736,1150,736z"/>
		</g>
	</g>
</g>
<g id="Back_00000148638666515082622100000002419633482980606389_" class="st0">
	<g id="Back">
		<g>
			<path class="st1" d="M1458,666c0,0-4.28-3.76,1.21-8.26C1474.62,645.1,1512,570.9,1512,468c0-114.69-51.13-210.38-137.37-277.13     C1303.32,135.67,1209.27,99,1089,99c-249.05,0-442,158.61-442,361c0,113.16,60.29,156.05,151.89,228.39     C841.71,722.48,844,738.33,844,745c0,15.13,1,93.96,1,106s-6.86,12.51-14,9s-69.86-56-184-56s-276,89-276,281     c0,93.53,42.61,178.87,109.26,245.89C535.1,1386.03,604.61,1432,694,1432c160.38,0,205.88-114.52,214-138     c3.1-8.32,10.27-8.84,17-5c21.47,21.5,133.47,131,318,131c120.03,0,237.76-65.28,305.81-177.04     c39.44-64.78,60.19-147.84,60.19-235.96C1609,769.23,1458,666,1458,666z"/>
		</g>
	</g>
</g>
<g id="Front_00000024715715367926668930000017550543986277899941_" class="st0">
	<g id="Front">
		<g>
			<path class="st2" d="M1338,664c0-6.79,25.67-14.46,54.61-57.87C1412.37,576.49,1437,535.87,1437,454c0-201.8-157.18-305-360-305     S701,290.61,701,445s99.83,155,104,155c4.17,0,77-6.9,77-71s-44.9-73.88-50-82c-5.1-8.12-10.17-24.55,41-93     c51.17-68.45,180.83-78,208-78s221.58-5.32,221,179c0,104.88-81.43,145.93-150.77,156.15C1093.67,619.63,1046,605,1046,605     s6.82-229.54-2-239c-8.82-9.46-166.93,52.99-168,59c-1.07,6.01,23,42.24,23,78c0,35.76,3.34,478.19-2,481s-93.99-125-257-125     c-112.81,0-205,108.93-205,214s67.96,226,204,226s177-91.93,177-143s-30.12-100-87-100c-52.16,0-81,36.84-81,60s3,24.63,3,31     s-0.15,14-17,14c-31.37,0-67-52.91-67-85c0-32.09,20.86-86,89-86c99.84,0,198.33,128.34,305.38,209.55     c87.37,66.27,168.61,88.45,239.62,88.45c158.01,0,312-123.56,312-341S1338,675.43,1338,664z M1193,1150     c-57.09,0-119.62-24.87-147-52c0-36.96,0.13-294.79,2.36-341.28c0.49-3.78,2.03-6.1,2.64-6.72c7.95-8.13,46.6-14,99-14     s216,41.74,216,216S1215.39,1150,1193,1150z"/>
		</g>
	</g>
</g>
</svg>
